<svg xmlns="http://www.w3.org/2000/svg" width="1024" height="1024" viewBox="0 0 1024 1024">
  <defs>
    <style>
      .cls-1 {
        fill: #39ea49;
      }

      .cls-2 {
        fill: #333;
        opacity: 0.1;
      }

      .cls-3 {
        opacity: 0.7;
      }
    </style>
  </defs>
  <title>btn_max_hover</title>
  <g id="green">
    <circle class="cls-1" cx="512" cy="512" r="512"/>
    <path class="cls-2" d="M512,1024A512.13,512.13,0,0,1,312.7,40.24,512.13,512.13,0,0,1,711.3,983.76,508.81,508.81,0,0,1,512,1024Zm0-984A472.13,472.13,0,0,0,328.28,946.92,472.13,472.13,0,0,0,695.72,77.08,469,469,0,0,0,512,40Z"/>
    <path class="cls-3" d="M395.93,267.8a31.32,31.32,0,0,1,22.86-9.48l319.33-2.55A31.25,31.25,0,0,1,770,287.64l-2.5,319.29A32,32,0,0,1,758,629.79a31.06,31.06,0,0,1-22.86,9.48,30.67,30.67,0,0,1-22.72-9.15L395.65,313.33c-6.22-6.13-9.24-13.67-9.15-22.72a31.28,31.28,0,0,1,9.43-22.82ZM629.84,758A31.32,31.32,0,0,1,607,767.45L287.64,770a31.25,31.25,0,0,1-31.87-31.87l2.5-319.29A32,32,0,0,1,267.75,396a31.06,31.06,0,0,1,22.86-9.48,30.67,30.67,0,0,1,22.72,9.15L630.12,712.44c6.22,6.13,9.24,13.67,9.15,22.72A31.28,31.28,0,0,1,629.84,758Z"/>
  </g>
</svg>
